<svg width="1310" height="189" viewBox="0 0 1310 189" fill="none" xmlns="http://www.w3.org/2000/svg">
<g clip-path="url(#clip0_1_2)">
<rect width="1310" height="189" fill="white"/>
<path d="M92.3138 59C92.676 55.0156 91.7101 51.8965 89.4161 49.6428C87.1221 47.3487 83.2584 46.2017 77.8252 46.2017C74.364 46.2017 71.4663 46.6042 69.132 47.4091C66.838 48.214 65.047 49.3208 63.7591 50.7294C62.5115 52.138 61.7267 53.768 61.4047 55.6193C61.0425 57.0682 61.0626 58.3963 61.4651 59.6037C61.9078 60.7708 62.7329 61.8374 63.9403 62.8033C65.1879 63.7692 66.8179 64.6345 68.8302 65.3991C70.8827 66.1638 73.3176 66.848 76.1349 67.4517L85.7939 69.625C92.3943 71.0739 97.9282 72.9856 102.396 75.3601C106.903 77.6944 110.445 80.4714 113.021 83.691C115.596 86.9107 117.287 90.5128 118.092 94.4972C118.937 98.4815 118.957 102.828 118.152 107.537C116.784 115.667 113.624 122.549 108.674 128.183C103.724 133.818 97.2641 138.104 89.2954 141.042C81.3266 143.98 72.1102 145.449 61.6462 145.449C50.9407 145.449 41.8451 143.859 34.3593 140.68C26.9137 137.46 21.5207 132.55 18.1803 125.95C14.8801 119.309 14.0752 110.837 15.7655 100.534H47.6405C47.1576 104.317 47.56 107.497 48.8479 110.072C50.1358 112.648 52.2085 114.6 55.066 115.928C57.9234 117.256 61.4852 117.92 65.7513 117.92C69.3735 117.92 72.4724 117.478 75.0482 116.592C77.624 115.707 79.6564 114.479 81.1455 112.91C82.6346 111.34 83.5402 109.549 83.8621 107.537C84.1841 105.686 83.8621 104.036 82.8962 102.587C81.9303 101.138 80.1796 99.8298 77.6441 98.6626C75.1086 97.4955 71.6273 96.429 67.2002 95.4631L55.3678 92.8068C44.8635 90.392 36.935 86.4077 31.5823 80.8537C26.2296 75.2997 24.338 67.6932 25.9076 58.0341C27.1955 50.1458 30.4353 43.2637 35.627 37.3878C40.8591 31.4716 47.4997 26.8835 55.5489 23.6236C63.6384 20.3234 72.5932 18.6733 82.4133 18.6733C92.3943 18.6733 100.745 20.3435 107.467 23.6839C114.228 27.0244 119.078 31.7131 122.016 37.75C124.994 43.7869 125.799 50.8703 124.43 59H92.3138ZM192.255 103.432L200.948 51.2727H234.272L218.818 144H187.184L190.082 126.372H189.116C186.259 132.288 181.992 136.917 176.318 140.257C170.683 143.557 164.405 145.207 157.483 145.207C151.003 145.207 145.59 143.718 141.243 140.74C136.897 137.762 133.818 133.657 132.007 128.425C130.196 123.193 129.833 117.196 130.92 110.435L140.821 51.2727H174.144L165.451 103.432C164.767 108.02 165.351 111.622 167.202 114.238C169.094 116.854 172.132 118.162 176.318 118.162C179.095 118.162 181.59 117.578 183.804 116.411C186.057 115.204 187.909 113.513 189.358 111.34C190.847 109.127 191.813 106.491 192.255 103.432ZM278.025 91.8409L269.332 144H236.008L251.462 51.2727H283.096L280.198 68.9006H281.164C284.102 62.9844 288.388 58.3762 294.023 55.076C299.698 51.7356 305.956 50.0653 312.798 50.0653C319.358 50.0653 324.811 51.5544 329.158 54.5327C333.504 57.5109 336.583 61.616 338.394 66.848C340.205 72.08 340.527 78.0767 339.36 84.8381L329.46 144H296.136L304.829 91.8409C305.594 87.2528 305.03 83.6508 303.139 81.0348C301.287 78.4188 298.229 77.1108 293.962 77.1108C291.266 77.1108 288.791 77.7145 286.537 78.9219C284.323 80.089 282.472 81.7794 280.983 83.9929C279.534 86.1662 278.548 88.7822 278.025 91.8409ZM384.547 180.705C375.209 180.705 367.442 179.376 361.244 176.72C355.086 174.104 350.539 170.482 347.601 165.854C344.703 161.266 343.495 155.993 343.978 150.037H376.095C376.175 152.049 376.759 153.659 377.846 154.866C378.932 156.074 380.441 156.939 382.373 157.462C384.305 157.986 386.559 158.247 389.135 158.247C393.481 158.247 397.244 157.181 400.424 155.048C403.603 152.955 405.555 149.192 406.28 143.759L408.936 128.062H407.97C406.28 131.202 404.006 133.878 401.148 136.092C398.291 138.265 395.011 139.935 391.308 141.102C387.605 142.229 383.661 142.793 379.476 142.793C372.875 142.793 367.06 141.263 362.029 138.205C357.038 135.146 353.416 130.296 351.162 123.656C348.949 117.015 348.727 108.342 350.498 97.6364C352.35 86.4479 355.61 77.3523 360.278 70.3494C364.947 63.3466 370.32 58.2152 376.397 54.9553C382.474 51.6953 388.571 50.0653 394.689 50.0653C399.277 50.0653 403.16 50.8703 406.34 52.4801C409.519 54.0497 412.055 56.1626 413.946 58.8189C415.838 61.4349 417.146 64.3125 417.87 67.4517H418.595L421.251 51.2727H454.575L439.12 143.759C437.913 151.647 434.834 158.328 429.884 163.801C424.974 169.315 418.615 173.5 410.807 176.358C403.04 179.256 394.286 180.705 384.547 180.705ZM395.655 119.128C398.713 119.128 401.49 118.283 403.986 116.592C406.481 114.862 408.594 112.407 410.324 109.227C412.055 106.008 413.282 102.144 414.007 97.6364C414.731 93.0483 414.772 89.1243 414.128 85.8643C413.484 82.5642 412.216 80.0488 410.324 78.3182C408.433 76.5473 405.958 75.6619 402.899 75.6619C399.84 75.6619 397.083 76.5473 394.628 78.3182C392.173 80.0488 390.101 82.5642 388.41 85.8643C386.72 89.1243 385.513 93.0483 384.788 97.6364C384.064 102.224 384.003 106.128 384.607 109.348C385.211 112.527 386.438 114.962 388.29 116.653C390.141 118.303 392.596 119.128 395.655 119.128ZM527.063 20.3636H560.146L546.14 105.122C544.772 113.171 541.592 120.255 536.602 126.372C531.611 132.449 525.313 137.198 517.706 140.619C510.1 144 501.708 145.69 492.532 145.69C484.644 145.69 477.641 144.322 471.524 141.585C465.447 138.808 460.939 134.462 458.001 128.545C455.103 122.589 454.459 114.862 456.069 105.364H489.634C489.232 108.503 489.313 111.139 489.876 113.272C490.439 115.365 491.486 116.955 493.015 118.041C494.545 119.088 496.557 119.611 499.052 119.611C501.547 119.611 503.741 119.067 505.632 117.981C507.524 116.854 509.094 115.224 510.341 113.091C511.589 110.918 512.494 108.261 513.058 105.122L527.063 20.3636ZM581.607 145.449C575.731 145.449 570.68 144.483 566.454 142.551C562.269 140.579 559.21 137.601 557.278 133.616C555.387 129.592 554.964 124.521 556.011 118.403C556.856 113.332 558.445 109.006 560.78 105.424C563.114 101.842 566.012 98.9041 569.473 96.6101C572.934 94.316 576.818 92.5653 581.124 91.358C585.471 90.1103 590.059 89.3054 594.888 88.9432C600.12 88.5407 604.366 88.0376 607.626 87.4339C610.886 86.8303 613.321 86.0052 614.931 84.9588C616.541 83.9124 617.507 82.5038 617.829 80.733V80.4915C618.191 78.0767 617.547 76.2254 615.897 74.9375C614.287 73.6496 612.033 73.0057 609.136 73.0057C605.996 73.0057 603.28 73.6899 600.986 75.0582C598.732 76.4266 597.182 78.5597 596.337 81.4574H565.67C566.958 75.8229 569.594 70.6312 573.578 65.8821C577.603 61.0928 582.935 57.2694 589.576 54.4119C596.257 51.5142 604.226 50.0653 613.482 50.0653C620.083 50.0653 625.878 50.8501 630.869 52.4197C635.859 53.9491 639.984 56.1023 643.244 58.8793C646.544 61.616 648.859 64.8357 650.187 68.5383C651.555 72.2008 651.877 76.1851 651.153 80.4915L640.528 144H609.377L611.55 130.96H610.826C608.411 134.421 605.695 137.219 602.676 139.352C599.698 141.485 596.438 143.034 592.896 144C589.395 144.966 585.632 145.449 581.607 145.449ZM596.096 124.44C598.591 124.44 601.046 123.917 603.461 122.871C605.876 121.824 607.948 120.315 609.679 118.343C611.409 116.371 612.516 113.976 612.999 111.159L614.207 103.432C613.321 103.794 612.335 104.136 611.248 104.458C610.202 104.74 609.095 105.022 607.928 105.303C606.801 105.585 605.594 105.847 604.306 106.088C603.058 106.33 601.771 106.571 600.442 106.812C597.786 107.215 595.552 107.879 593.741 108.805C591.93 109.69 590.522 110.797 589.516 112.125C588.509 113.413 587.886 114.862 587.644 116.472C587.282 119.007 587.865 120.979 589.395 122.388C590.964 123.756 593.198 124.44 596.096 124.44ZM700.64 145.69C690.74 145.69 682.53 143.799 676.01 140.016C669.49 136.192 664.902 130.719 662.245 123.595C659.589 116.431 659.106 107.859 660.797 97.8778C662.406 88.2992 665.727 79.928 670.758 72.7642C675.829 65.6004 682.208 60.0263 689.895 56.0419C697.622 52.0575 706.275 50.0653 715.853 50.0653C722.856 50.0653 728.994 51.152 734.266 53.3253C739.579 55.4986 743.905 58.6579 747.245 62.8033C750.586 66.9486 752.84 71.9593 754.007 77.8352C755.214 83.6709 755.214 90.2713 754.007 97.6364L752.799 105.364H669.973L672.87 87.0114H725.03C725.432 84.3551 725.17 82.0208 724.245 80.0085C723.359 77.956 721.931 76.3662 719.959 75.2393C718.027 74.0722 715.692 73.4886 712.956 73.4886C710.219 73.4886 707.643 74.0722 705.228 75.2393C702.854 76.4065 700.821 78.0365 699.131 80.1293C697.481 82.2221 696.374 84.6771 695.811 87.4943L692.189 106.812C691.706 109.791 691.887 112.447 692.732 114.781C693.577 117.116 695.046 118.947 697.139 120.275C699.232 121.603 701.928 122.267 705.228 122.267C707.482 122.267 709.615 121.965 711.628 121.362C713.68 120.718 715.491 119.792 717.061 118.585C718.671 117.337 719.959 115.828 720.924 114.057H751.351C749.177 120.496 745.736 126.09 741.027 130.839C736.359 135.548 730.604 139.211 723.762 141.827C716.96 144.402 709.253 145.69 700.64 145.69ZM887.317 61.1733C887.156 59.0402 886.714 57.1688 885.989 55.5589C885.265 53.9089 884.239 52.5204 882.91 51.3935C881.582 50.2263 879.932 49.361 877.96 48.7976C876.028 48.1939 873.754 47.892 871.138 47.892C865.504 47.892 860.373 49.2403 855.744 51.9368C851.116 54.6333 847.232 58.517 844.093 63.5881C840.994 68.6591 838.861 74.7765 837.694 81.9403C836.486 89.1847 836.386 95.3826 837.392 100.534C838.398 105.686 840.571 109.63 843.912 112.366C847.293 115.103 851.86 116.472 857.616 116.472C862.767 116.472 867.214 115.727 870.957 114.238C874.7 112.749 877.699 110.636 879.952 107.899C882.206 105.162 883.615 101.943 884.178 98.2401L889.974 98.8438H861.721L865.584 74.9375H920.4L917.623 92.0824C915.771 103.351 911.787 112.99 905.67 120.999C899.592 128.968 892.026 135.085 882.971 139.352C873.915 143.577 863.975 145.69 853.148 145.69C841.155 145.69 831.033 143.135 822.783 138.023C814.532 132.912 808.636 125.628 805.094 116.17C801.593 106.712 800.909 95.4631 803.042 82.4233C804.732 72.2008 807.791 63.1454 812.218 55.2571C816.685 47.3688 822.139 40.7081 828.578 35.2749C835.017 29.8014 842.121 25.6761 849.888 22.8991C857.656 20.0819 865.705 18.6733 874.036 18.6733C881.321 18.6733 887.941 19.7197 893.898 21.8125C899.854 23.8651 904.945 26.803 909.171 30.6264C913.397 34.4096 916.556 38.897 918.649 44.0888C920.782 49.2805 921.647 54.9754 921.245 61.1733H887.317ZM941.484 144L933.756 51.2727H967.08L968.288 107.778H969.012L990.262 51.2727H1022.62L1025.52 107.295H1026.24L1045.8 51.2727H1079.13L1040.49 144H1004.51L999.68 94.2557H998.714L977.464 144H941.484ZM1116.58 145.69C1106.52 145.69 1098.23 143.698 1091.71 139.714C1085.23 135.689 1080.69 130.095 1078.07 122.931C1075.45 115.727 1074.93 107.376 1076.5 97.8778C1078.07 88.3797 1081.35 80.0488 1086.34 72.8849C1091.33 65.6809 1097.75 60.0866 1105.6 56.1023C1113.45 52.0776 1122.42 50.0653 1132.52 50.0653C1142.54 50.0653 1150.79 52.0776 1157.27 56.1023C1163.79 60.0866 1168.36 65.6809 1170.98 72.8849C1173.63 80.0488 1174.18 88.3797 1172.61 97.8778C1171.04 107.376 1167.74 115.727 1162.71 122.931C1157.68 130.095 1151.24 135.689 1143.39 139.714C1135.58 143.698 1126.65 145.69 1116.58 145.69ZM1120.69 121.06C1123.59 121.06 1126.22 120.114 1128.6 118.222C1131.01 116.331 1133.07 113.634 1134.76 110.133C1136.49 106.631 1137.75 102.466 1138.56 97.6364C1139.36 92.7666 1139.49 88.6011 1138.92 85.1399C1138.36 81.6385 1137.19 78.942 1135.42 77.0504C1133.65 75.1589 1131.32 74.2131 1128.42 74.2131C1125.52 74.2131 1122.86 75.1589 1120.45 77.0504C1118.03 78.942 1115.98 81.6385 1114.29 85.1399C1112.6 88.6011 1111.35 92.7666 1110.55 97.6364C1109.74 102.466 1109.6 106.631 1110.13 110.133C1110.69 113.634 1111.86 116.331 1113.63 118.222C1115.44 120.114 1117.79 121.06 1120.69 121.06ZM1220.66 91.8409L1211.97 144H1178.64L1194.1 51.2727H1225.73L1222.83 68.9006H1223.8C1226.74 62.9844 1231.03 58.3762 1236.66 55.076C1242.33 51.7356 1248.59 50.0653 1255.43 50.0653C1261.99 50.0653 1267.45 51.5544 1271.79 54.5327C1276.14 57.5109 1279.22 61.616 1281.03 66.848C1282.84 72.08 1283.16 78.0767 1282 84.8381L1272.1 144H1238.77L1247.47 91.8409C1248.23 87.2528 1247.67 83.6508 1245.78 81.0348C1243.92 78.4188 1240.87 77.1108 1236.6 77.1108C1233.9 77.1108 1231.43 77.7145 1229.17 78.9219C1226.96 80.089 1225.11 81.7794 1223.62 83.9929C1222.17 86.1662 1221.18 88.7822 1220.66 91.8409Z" fill="black"/>
</g>
<defs>
<clipPath id="clip0_1_2">
<rect width="1310" height="189" fill="white"/>
</clipPath>
</defs>
</svg>
